<svg width="33" height="25" viewBox="0 0 33 25" fill="none" xmlns="http://www.w3.org/2000/svg">
<path d="M22.3333 0.833344C22.7201 0.833344 23.091 0.986989 23.3645 1.26048C23.638 1.53397 23.7917 1.9049 23.7917 2.29168V8.41668L31.394 3.09376C31.5033 3.01713 31.6315 2.97199 31.7647 2.96324C31.8979 2.9545 32.031 2.98249 32.1494 3.04417C32.2678 3.10585 32.367 3.19885 32.4361 3.31302C32.5053 3.4272 32.5418 3.55818 32.5417 3.69168V21.3083C32.5418 21.4418 32.5053 21.5728 32.4361 21.687C32.367 21.8012 32.2678 21.8942 32.1494 21.9558C32.031 22.0175 31.8979 22.0455 31.7647 22.0368C31.6315 22.028 31.5033 21.9829 31.394 21.9063L23.7917 16.5833V22.7083C23.7917 23.0951 23.638 23.4661 23.3645 23.7395C23.091 24.013 22.7201 24.1667 22.3333 24.1667H1.91666C1.52989 24.1667 1.15895 24.013 0.885464 23.7395C0.611974 23.4661 0.458328 23.0951 0.458328 22.7083V2.29168C0.458328 1.9049 0.611974 1.53397 0.885464 1.26048C1.15895 0.986989 1.52989 0.833344 1.91666 0.833344H22.3333ZM9.79166 7.87564C9.65718 7.87561 9.52683 7.92204 9.42266 8.00708C9.31848 8.09212 9.24689 8.21054 9.21999 8.3423L9.20833 8.45751V16.5396C9.20831 16.6341 9.23125 16.7271 9.27515 16.8108C9.31905 16.8944 9.38261 16.9661 9.46036 17.0198C9.53811 17.0734 9.62773 17.1074 9.72151 17.1188C9.81529 17.1301 9.91043 17.1185 9.99874 17.085L10.1052 17.0325L16.4562 12.99C16.5303 12.9426 16.5928 12.879 16.6388 12.8041C16.6849 12.7292 16.7134 12.6448 16.7223 12.5572C16.7311 12.4697 16.72 12.3813 16.6899 12.2987C16.6597 12.216 16.6113 12.1413 16.5481 12.08L16.4562 12.0071L10.1052 7.96459C10.0111 7.90627 9.90236 7.87592 9.79166 7.87709V7.87564Z" fill="white"/>
</svg>
