<svg width="31" height="31" viewBox="0 0 31 31" fill="none" xmlns="http://www.w3.org/2000/svg">
<path d="M15.5 30.0833C7.44563 30.0833 0.916672 23.5544 0.916672 15.5C0.916672 7.44562 7.44563 0.916656 15.5 0.916656C23.5544 0.916656 30.0833 7.44562 30.0833 15.5C30.0833 23.5544 23.5544 30.0833 15.5 30.0833ZM10.3958 18.4167V21.3333H14.0417V24.25H16.9583V21.3333H18.4167C19.3836 21.3333 20.3109 20.9492 20.9947 20.2655C21.6784 19.5818 22.0625 18.6544 22.0625 17.6875C22.0625 16.7206 21.6784 15.7932 20.9947 15.1095C20.3109 14.4258 19.3836 14.0417 18.4167 14.0417H12.5833C12.39 14.0417 12.2045 13.9648 12.0677 13.8281C11.931 13.6913 11.8542 13.5059 11.8542 13.3125C11.8542 13.1191 11.931 12.9336 12.0677 12.7969C12.2045 12.6601 12.39 12.5833 12.5833 12.5833H20.6042V9.66666H16.9583V6.74999H14.0417V9.66666H12.5833C11.6164 9.66666 10.6891 10.0508 10.0053 10.7345C9.32162 11.4182 8.93751 12.3456 8.93751 13.3125C8.93751 14.2794 9.32162 15.2068 10.0053 15.8905C10.6891 16.5742 11.6164 16.9583 12.5833 16.9583H18.4167C18.6101 16.9583 18.7955 17.0351 18.9323 17.1719C19.069 17.3086 19.1458 17.4941 19.1458 17.6875C19.1458 17.8809 19.069 18.0663 18.9323 18.2031C18.7955 18.3398 18.6101 18.4167 18.4167 18.4167H10.3958Z" fill="white"/>
</svg>
