<svg width="31" height="31" viewBox="0 0 31 31" fill="none" xmlns="http://www.w3.org/2000/svg">
<path d="M15.5 14.0417C17.4339 14.0417 19.2885 14.8099 20.656 16.1774C22.0234 17.5448 22.7917 19.3995 22.7917 21.3333V30.0833H8.20834V21.3333C8.20834 19.3995 8.97657 17.5448 10.344 16.1774C11.7115 14.8099 13.5661 14.0417 15.5 14.0417ZM5.71167 18.4254C5.47959 19.2082 5.34249 20.0161 5.30334 20.8317L5.29167 21.3333V30.0833H0.916672V23.5208C0.916385 22.2631 1.38046 21.0496 2.21989 20.113C3.05932 19.1764 4.21498 18.5828 5.46521 18.4458L5.71313 18.4254H5.71167ZM25.2883 18.4254C26.5861 18.5045 27.8048 19.0758 28.6959 20.0226C29.5869 20.9695 30.0832 22.2206 30.0833 23.5208V30.0833H25.7083V21.3333C25.7083 20.3227 25.5625 19.3471 25.2883 18.4254ZM6.02084 9.66667C6.98777 9.66667 7.91511 10.0508 8.59883 10.7345C9.28256 11.4182 9.66667 12.3456 9.66667 13.3125C9.66667 14.2794 9.28256 15.2068 8.59883 15.8905C7.91511 16.5742 6.98777 16.9583 6.02084 16.9583C5.0539 16.9583 4.12657 16.5742 3.44285 15.8905C2.75912 15.2068 2.37501 14.2794 2.37501 13.3125C2.37501 12.3456 2.75912 11.4182 3.44285 10.7345C4.12657 10.0508 5.0539 9.66667 6.02084 9.66667ZM24.9792 9.66667C25.9461 9.66667 26.8734 10.0508 27.5572 10.7345C28.2409 11.4182 28.625 12.3456 28.625 13.3125C28.625 14.2794 28.2409 15.2068 27.5572 15.8905C26.8734 16.5742 25.9461 16.9583 24.9792 16.9583C24.0122 16.9583 23.0849 16.5742 22.4012 15.8905C21.7175 15.2068 21.3333 14.2794 21.3333 13.3125C21.3333 12.3456 21.7175 11.4182 22.4012 10.7345C23.0849 10.0508 24.0122 9.66667 24.9792 9.66667ZM15.5 0.916672C17.0471 0.916672 18.5308 1.53125 19.6248 2.62522C20.7188 3.71918 21.3333 5.20291 21.3333 6.75001C21.3333 8.2971 20.7188 9.78083 19.6248 10.8748C18.5308 11.9688 17.0471 12.5833 15.5 12.5833C13.9529 12.5833 12.4692 11.9688 11.3752 10.8748C10.2813 9.78083 9.66667 8.2971 9.66667 6.75001C9.66667 5.20291 10.2813 3.71918 11.3752 2.62522C12.4692 1.53125 13.9529 0.916672 15.5 0.916672Z" fill="white"/>
</svg>
