<svg width="27" height="32" viewBox="0 0 27 32" fill="none" xmlns="http://www.w3.org/2000/svg">
<path d="M5.30709 7.70333C7.6313 5.84113 10.5218 4.82858 13.5 4.83333C16.599 4.83333 19.4471 5.90666 21.6929 7.70333L23.8119 5.58437L25.874 7.64645L23.755 9.76541C25.2975 11.6965 26.2634 14.0238 26.5416 16.4796C26.8198 18.9353 26.3989 21.4198 25.3275 23.6469C24.2561 25.8741 22.5775 27.7534 20.4851 29.0688C18.3927 30.3841 15.9715 31.0819 13.5 31.0819C11.0285 31.0819 8.60727 30.3841 6.51487 29.0688C4.42247 27.7534 2.74396 25.8741 1.67252 23.6469C0.601072 21.4198 0.180228 18.9353 0.458417 16.4796C0.736606 14.0238 1.70252 11.6965 3.24501 9.76541L1.12605 7.64791L3.18813 5.58583L5.30709 7.70479V7.70333ZM14.9583 16.5V9.9302L7.66667 19.4167H12.0417V25.9792L19.3333 16.5H14.9583ZM7.66667 0.458328H19.3333V3.37499H7.66667V0.458328Z" fill="white"/>
</svg>
